<svg xmlns="http://www.w3.org/2000/svg" viewBox="101.97 157.27 298.05 70.72"><path fill="black" fill-rule="evenodd" d="M102.48, 227.48L104.15, 219.93L106.03, 211.65L108.11, 202.65L110.4, 192.92L112.5, 184.42L114.79, 175.74L115.92, 171.61L116.91, 168L117.79, 164.91L118.53, 162.35L119.88, 157.78L130.89, 157.78L133.27, 166.09L135.61, 174.72L137.91, 183.67L140.18, 192.95L148.25, 227.49L136.46, 227.49L135.86, 224.81L135.18, 221.83L134.45, 218.54L133.64, 214.95L116.77, 214.95L114.26, 227.49L102.47, 227.49L102.48, 227.48 M118.78, 204.88L118.78, 204.87L120.26, 196.08L121.7, 187.97L123.1, 180.54L124.47, 173.8L125.32, 177.64L125.81, 179.86L126.42, 182.6L127.14, 185.86L127.98, 189.64L129.72, 197.49L131.38, 204.88L118.78, 204.88"/><path fill="black" d="M141.38, 157.77L153.52, 157.77L164.81, 214.55L176.15, 157.77L188.29, 157.77L171.48, 227.48L158.1, 227.48L141.38, 157.77"/><path fill="black" d="M195.15, 227.48L195.15, 157.77L206.24, 157.77L206.24, 217.03L227.23, 217.03L227.23, 227.48L195.14, 227.48L195.15, 227.48"/><path fill="black" d="M247.44, 227.48L247.44, 157.77L280.72, 157.77L280.72, 168.22L258.23, 168.22L258.23, 189.95L279.32, 189.95L279.32, 200.4L258.23, 200.4L258.23, 227.48L247.43, 227.48L247.44, 227.48"/><path fill="black" d="M288.28, 227.48L288.28, 157.77L299.08, 157.77L299.08, 227.48L288.28, 227.48"/><path fill="black" d="M311.53, 227.48L311.53, 157.77L322.62, 157.77L322.62, 217.03L343.61, 217.03L343.61, 227.48L311.52, 227.48L311.53, 227.48"/><path fill="black" d="M350.03, 227.48L350.03, 157.77L359.78, 157.77L374.8, 192.43L389.77, 157.77L399.52, 157.77L399.52, 227.48L389.02, 227.48L389.02, 184.75L374.79, 216.01L360.51, 184.75L360.51, 227.48L350.01, 227.48L350.03, 227.48"/><path fill="black" d="M227.41, 181.13L229.17, 186.56L229.49, 187L229.99, 187.16L235.7, 187.16L236.23, 187.33L236.52, 187.76L236.53, 188.27L236.21, 188.72L231.59, 192.07L231.28, 192.5L231.28, 193.03L233.04, 198.46L233.04, 199.01L232.73, 199.42L232.24, 199.59L231.71, 199.42L227.09, 196.07L226.58, 195.9L226.08, 196.07L221.46, 199.42L220.93, 199.59L220.44, 199.42L220.13, 199.01L220.13, 198.46L221.89, 193.03L221.89, 192.5L221.58, 192.07L216.96, 188.72L216.63, 188.27L216.65, 187.76L216.94, 187.33L217.47, 187.16L223.18, 187.16L223.69, 187L224, 186.56L225.76, 181.13L226.09, 180.69L226.58, 180.54L227.07, 180.69L227.4, 181.13L227.41, 181.13"/></svg>